<svg xmlns="http://www.w3.org/2000/svg"><defs><font id="OpenSans" horiz-adv-x="1106"><font-face font-family="Open Sans" units-per-em="2048" ascent="2189" descent="-600" alphabetic="0"/><glyph glyph-name="space" horiz-adv-x="532"/><glyph unicode="!" glyph-name="exclam" horiz-adv-x="623" d="m125 516 156 946h426L453 516H125zm74-541Q93-25 53 22T12 127q0 98 60 165t184 68q86 0 133-40t47-115q0-115-66-172T199-25z"/><glyph unicode="&quot;" glyph-name="quotedbl" horiz-adv-x="930" d="m623 934 73 528h342L881 934H623zm-441 0 72 528h342L438 934H182z"/><glyph unicode="#" glyph-name="numbersign" horiz-adv-x="1323" d="m121 0 112 393H14l21 238h266l57 200H123l20 242h285l111 389h270l-111-389h168l111 389h270l-110-389h221l-21-242h-270l-57-200h243l-20-238H940L829 0H559l113 393H504L391 0H121zm450 631h168l58 200H629l-58-200z"/><glyph unicode="$" glyph-name="dollar" horiz-adv-x="1188" d="m367-121 41 191q-124 9-209 34T61 162l-6 305q107-49 214-78t200-37l59 279q-104 40-180 91T230 844t-42 164q0 127 62 216t176 140 270 59l29 133h168l-31-137q83-7 160-29t154-59l-101-268q-55 29-129 48t-143 28l-60-277q119-53 192-106t106-117 34-147q0-128-65-220T831 127 573 66l-38-187H367zm268 479q41 10 66 25t36 37 11 45q0 25-8 43t-24 34-36 27l-45-211zm-43 574 45 203q-39-8-60-25t-29-39-9-49q0-22 6-38t18-29 29-23z"/><glyph unicode="%" glyph-name="percent" horiz-adv-x="1905" d="m293 0 1089 1462h289L590 0H293zm145 565q-157 0-240 87t-83 257q0 72 14 151t47 154 83 136 125 97 171 36q160 0 239-90t80-254q0-71-13-150t-44-154-81-136-124-97-174-37zm19 242q24 0 44 23t37 61 28 85 18 94 6 87q0 43-12 63t-41 21q-22 0-42-22t-37-59-29-83-19-94-7-92q0-41 13-62t41-22zm964-827q-157 0-240 86t-83 258q0 72 14 151t47 154 83 135 125 97 171 36q160 0 240-90t80-254q0-71-13-149t-44-154-81-136-125-97-174-37zm19 241q24 0 44 23t37 61 28 85 18 94 6 87q0 44-12 64t-41 20q-22 0-42-22t-37-59-29-83-19-94-7-92q0-41 13-62t41-22z"/><glyph unicode="&amp;" glyph-name="ampersand" horiz-adv-x="1501" d="M528-20Q290-20 149 84T8 385q0 112 42 194t122 141 195 95q-42 53-63 127t-21 123q0 133 57 227t166 143 258 50q118 0 212-37t149-109 55-178q0-96-40-172t-117-139-185-119l129-186q41 43 79 122t60 154h383q-33-115-83-218t-110-189-125-152L1362 0H920l-43 61Q810 26 721 3T528-20zm43 307q28 0 53 3t46 10 39 13L516 592q-45-19-70-46t-36-58-11-64q0-34 18-65t56-52 98-20zm115 661q29 12 54 29t45 40 31 53 11 65q0 35-22 60t-60 26q-32 0-57-16t-39-44-14-69q0-22 10-63t41-81z"/><glyph unicode="'" glyph-name="quotesingle" horiz-adv-x="487" d="m182 934 72 528h342L438 934H182z"/><glyph unicode="(" glyph-name="parenleft" horiz-adv-x="766" d="M219-324q-48 85-81 196T86 101 68 326q0 174 33 332t98 302 161 280 220 263h323q-109-118-201-249T540 975 433 662t-38-353q0-95 14-206t40-221 63-206H219z"/><glyph unicode=")" glyph-name="parenright" horiz-adv-x="766" d="M-133-324Q-24-205 67-74t159 279 104 313 37 352q0 96-14 207t-41 221-64 205h295q52-91 85-201t50-226 16-222q0-174-31-332t-95-303T411-61 193-324h-326z"/><glyph unicode="*" glyph-name="asterisk" horiz-adv-x="1110" d="m692 551-80 303-166-244-249 185 254 229-299 84 100 278 319-165 31 350 307-62-116-331 368 30-22-301-310 41 148-311-285-86z"/><glyph unicode="+" glyph-name="plus" horiz-adv-x="1200" d="M733 856h373V588H733V227H465v361H92v268h373v367h268V856z"/><glyph unicode="," glyph-name="comma" horiz-adv-x="627" d="M-104-264q36 81 69 170T28 81t56 157h348l8-23q-31-72-72-155t-88-166-96-158h-288z"/><glyph unicode="-" glyph-name="hyphen" horiz-adv-x="674" d="m23 393 63 312h553l-64-312H23z"/><glyph unicode="." glyph-name="period" horiz-adv-x="627" d="M174-25Q96-25 48 12T0 127q0 122 73 177t171 56q80 0 130-37t50-118q0-132-68-181T174-25z"/><glyph unicode="/" glyph-name="slash" horiz-adv-x="956" d="m-90-20 838 1503h344L254-20H-90z"/><glyph unicode="0" glyph-name="zero" horiz-adv-x="1188" d="M489-20q-201 0-313 121T63 465q0 124 17 247t52 238 89 211 128 170 169 113 213 41q117 0 198-42t132-115 73-161 23-184q0-132-18-257t-55-238-92-205-129-161T695 17 489-20zm39 315q35 0 66 31t57 86 48 125 37 148 24 156 8 150q0 85-19 131t-63 47q-30 0-59-32t-55-87-48-126-37-151-25-161-9-155q0-83 15-122t60-40z"/><glyph unicode="1" glyph-name="one" horiz-adv-x="1188" d="m385 0 174 799q8 38 20 84t28 92 28 80q-29-26-67-56t-64-47L301 827l-151 252 620 383h311L774 0H385z"/><glyph unicode="2" glyph-name="two" horiz-adv-x="1188" d="m-57 0 53 256 483 436q73 65 121 119t76 99 39 79 12 64q0 49-26 73t-66 25q-43 0-88-16t-92-50-101-81l-186 258q107 101 241 161t300 60q121 0 212-44t143-127 52-198q0-95-34-183T965 743 731 514L526 338v-12h490L948 0H-57z"/><glyph unicode="3" glyph-name="three" horiz-adv-x="1188" d="M399-20Q290-20 185 0T14 59v332q89-54 184-77t193-23q59 0 109 10t88 31 57 55 21 84q0 43-21 72t-81 45-177 16h-84l53 291h78q72 0 129 11t98 34 62 55 22 74q0 35-29 68t-106 34q-67 0-134-23t-136-61l-158 248q107 68 220 108t282 40q131 0 230-41t156-119 56-186q0-107-44-183T961 830t-177-68v-8q136-26 205-115t70-209q0-119-52-204T864 87 653 6 399-20z"/><glyph unicode="4" glyph-name="four" horiz-adv-x="1188" d="m479 0 60 283H-10l51 256 762 923h360L977 578h149l-61-295H915L856 0H479zm-88 578h209l49 194q10 35 22 79t23 81 15 51h-9q-18-34-50-85t-64-87L391 578z"/><glyph unicode="5" glyph-name="five" horiz-adv-x="1188" d="M434-20q-74 0-155 9T128 16 20 63v324q74-43 176-69t189-27q66 0 117 11t87 34 54 60 19 87q0 69-46 119t-141 51q-52 0-108-9t-95-23l-122 92 215 749h813l-68-323H639l-59-185q26 3 44 3t31 1q113 0 205-50t146-146 55-238q0-138-44-240T891 114 693 14 434-20z"/><glyph unicode="6" glyph-name="six" horiz-adv-x="1188" d="M557-20q-167 0-272 67T130 233 80 510q0 105 18 215t54 216 88 194 120 151q89 82 177 124t193 58 241 15q57 0 116-8t117-23l-63-303q-38 11-90 18t-93 7q-157 0-251-39t-149-120-95-208h8q27 43 66 82t98 63 143 25q151 0 239-98t89-304q0-127-36-235T963 151 790 25 557-20zm4 307q38 0 66 22t48 59 28 83 10 94q0 60-22 94t-70 35q-32 0-59-16t-48-47-35-72q-5-17-8-36t-6-40-2-43q0-33 7-58t20-41 31-25 40-9z"/><glyph unicode="7" glyph-name="seven" horiz-adv-x="1188" d="m35 0 717 1135H178l70 327h1030l-51-231L483 0H35z"/><glyph unicode="8" glyph-name="eight" horiz-adv-x="1188" d="M537-20q-160 0-268 48T105 158 49 338q0 102 38 182t112 139 182 97q-41 33-76 74t-58 99-22 136q0 113 56 208t168 154 276 58q140 0 236-44t146-119 50-171q0-78-32-151t-94-130-154-88q61-47 103-101t63-119 22-142q0-138-64-236T819 33 537-20zm10 282q43 0 78 18t56 52 21 82q0 40-14 75t-41 65-63 54q-48-25-86-58t-61-75-23-90q0-61 42-92t91-31zm127 668q43 17 71 45t42 63 14 66q0 49-28 73t-66 25q-32 0-59-18t-43-49-17-70q0-40 24-78t62-57z"/><glyph unicode="9" glyph-name="nine" horiz-adv-x="1188" d="M317-20q-63 0-114 8t-97 22v314q50-20 98-30t105-7q95 5 167 28t126 69 88 112 55 159h-8q-26-43-64-83t-96-65-141-26q-102 0-175 50T148 673t-39 214q0 95 21 183t63 163 109 131 155 87 205 32q167 0 271-68t154-188 50-275q0-105-15-212t-49-208-87-193-130-163q-48-45-105-81T627 33 483-6 317-20zm277 808q31 0 57 16t48 44 34 65q9 26 15 55t6 62q0 41-11 74t-34 52-54 20q-33 0-61-19t-48-54-32-78-12-93q0-72 23-108t69-36z"/><glyph unicode=":" glyph-name="colon" horiz-adv-x="627" d="M369 762q-79 0-126 37t-48 116q0 81 33 132t88 76 120 24q82 0 132-37t50-117q0-133-68-182t-181-49zM174-25Q96-25 48 12T0 127q0 122 73 177t171 56q80 0 130-37t50-118q0-132-68-181T174-25z"/><glyph unicode=";" glyph-name="semicolon" horiz-adv-x="627" d="M-117-264q36 81 69 170T16 81t56 157h348l8-23q-31-72-72-155t-89-166-95-158h-289zM369 762q-79 0-126 37t-48 116q0 81 33 132t88 76 120 24q82 0 132-37t50-117q0-133-68-182t-181-49z"/><glyph unicode="&lt;" glyph-name="less" horiz-adv-x="1200" d="M1104 178 92 627v172l1012 506v-297L483 725l621-252V178z"/><glyph unicode="=" glyph-name="equal" horiz-adv-x="1200" d="M92 815v268h1016V815H92zm0-457v271h1016V358H92z"/><glyph unicode="&gt;" glyph-name="greater" horiz-adv-x="1200" d="m92 473 621 252-621 283v297l1012-506V627L92 178v295z"/><glyph unicode="?" glyph-name="question" horiz-adv-x="999" d="M250 516q21 112 51 181t82 123 139 112q67 44 101 73t48 53 13 46q0 31-18 50t-72 20q-55 0-136-26t-177-83l-119 283q95 56 213 95t248 40q203 0 320-90t118-248q0-112-39-185T919 836t-135-93q-77-47-115-78t-56-63-35-86H250zm84-541q-106 0-146 47t-41 105q0 98 60 165t184 68q86 0 133-40t47-115q0-115-66-172T334-25z"/><glyph unicode="@" glyph-name="at" horiz-adv-x="1837" d="M780-186q-155 0-283 46T276-5 133 211 82 500q0 192 49 347t137 275 207 199 257 121 288 41q234 0 403-77t260-224 91-355q0-104-25-197t-73-170-113-134-146-88-170-31q-79 0-136 31t-83 98h-10q-48-64-111-96t-157-33q-117 0-191 83t-74 222q0 77 21 158t64 157 108 134 154 94 200 35q83 0 170-19t166-51l-100-414q-11-44-17-76t-6-61q0-19 9-30t30-11q33 0 66 15t62 45 51 78 35 110 13 145q0 132-55 229t-169 150-292 53q-112 0-211-33t-179-95-139-152-90-202-32-247q0-161 61-268T565 96t211-53q98 0 229 23t250 71V-88q-84-40-213-69t-262-29zm62 614q59 0 99 50t75 190l47 190q-10 5-23 7t-28 3q-64 0-111-33t-77-86-45-110-15-107q0-55 20-79t58-25z"/><glyph unicode="A" glyph-name="A" horiz-adv-x="1384" d="m-121 0 744 1462h503L1249 0H868l-10 274H410L285 0h-406zm674 586h293l-15 420q-1 49-2 97t0 91h-6q-15-46-32-90t-39-90L553 586z"/><glyph unicode="B" glyph-name="B" horiz-adv-x="1298" d="m33 0 309 1462h487q157 0 254-41t142-113 45-165q0-99-34-173t-101-125-162-79v-8q88-29 140-102t52-177q0-171-78-276T876 49 580 0H33zm456 305h82q60 0 105 23t70 61 26 86q0 69-33 103t-116 34h-68l-66-307zm125 596h72q69 0 107 20t55 57 16 83q0 49-31 75t-96 27h-63l-60-262z"/><glyph unicode="C" glyph-name="C" horiz-adv-x="1290" d="M645-20q-183 0-303 71T163 251t-59 298q0 131 28 264t87 253 151 215 219 149 292 55q146 0 262-34t219-97l-148-305q-93 55-171 82t-162 28q-71 0-130-32t-106-89-79-131-49-161-17-177q0-133 56-199t161-67q89 0 174 22t194 68V70Q978 22 869 1T645-20z"/><glyph unicode="D" glyph-name="D" horiz-adv-x="1401" d="m33 0 309 1462h416q269 0 424-141t155-412q0-170-36-312t-107-253-171-187T791 40 504 0H33zm461 324h69q67 0 125 26t105 75 80 119 51 157 18 188q0 125-54 189t-151 65h-71L494 324z"/><glyph unicode="E" glyph-name="E" horiz-adv-x="1151" d="m33 0 309 1462h868l-65-317H668l-47-230h444l-72-317H549l-57-276h477L901 0H33z"/><glyph unicode="F" glyph-name="F" horiz-adv-x="1165" d="m33 0 309 1462h862l-67-317H666l-58-279h436l-69-319H537L424 0H33z"/><glyph unicode="G" glyph-name="G" horiz-adv-x="1430" d="M653-20q-248 0-398 146T104 563q0 141 33 275t101 252 170 206 240 139 313 50q127 0 243-27t205-80l-147-309q-63 37-140 63t-166 27q-128 0-215-59T600 950t-76-193-24-188q0-92 24-150t70-86 115-28q40 0 66 3t67 11l51 232H664l67 305h610L1174 61Q1069 27 943 4T653-20z"/><glyph unicode="H" glyph-name="H" horiz-adv-x="1462" d="m33 0 309 1462h391L621 920h348l112 542h392L1163 0H772l125 596H551L424 0H33z"/><glyph unicode="I" glyph-name="I" horiz-adv-x="723" d="m33 0 309 1462h391L424 0H33z"/><glyph unicode="J" glyph-name="J" horiz-adv-x="764" d="M-115-461q-52 0-108 8t-105 21v319q37-9 79-16t95-8q63 0 110 21t81 76 55 157l289 1345h391L473 68q-41-192-111-308T177-409t-292-52z"/><glyph unicode="K" glyph-name="K" horiz-adv-x="1370" d="m33 0 309 1462h391L598 838l145 204 320 420h459L971 788 1241 0H803L629 578l-97-56L424 0H33z"/><glyph unicode="L" glyph-name="L" horiz-adv-x="1079" d="m33 0 309 1462h391L492 319h477L901 0H33z"/><glyph unicode="M" glyph-name="M" horiz-adv-x="1862" d="m33 0 309 1462h518V424h8l478 1038h526L1559 0h-351l117 549q33 153 58 251t41 156 24 93h-8L958 0H588v1049h-8q-16-103-31-195t-28-172-27-145L381 0H33z"/><glyph unicode="N" glyph-name="N" horiz-adv-x="1618" d="m33 0 309 1462h455l286-983h9q5 44 14 112t21 138 22 121l131 612h348L1319 0H864L575 1028h-8q-1-20-6-68t-13-111-17-125-21-114L381 0H33z"/><glyph unicode="O" glyph-name="O" horiz-adv-x="1509" d="M666-20q-187 0-311 70T167 246t-63 297q0 114 21 227t64 218 108 196 153 157 199 106 248 38q270 0 409-154t140-409q0-114-20-227t-62-219-106-196-150-157T911 18 666-20zm34 323q49 0 94 22t84 62 71 97 55 125 35 147 12 162q0 113-48 178t-139 65q-55 0-103-25t-88-69-73-103-54-128-34-143-12-148q0-79 22-133t67-81 111-28z"/><glyph unicode="P" glyph-name="P" horiz-adv-x="1276" d="m33 0 309 1462h373q194 0 311-58t171-157 54-223q0-131-46-231t-132-169-203-104-260-35h-86L424 0H33zm561 805h63q62 0 107 27t71 74 25 106q0 50-31 90t-104 41h-59l-72-338z"/><glyph unicode="Q" glyph-name="Q" horiz-adv-x="1509" d="M821-348 659-20h-22q-172 0-291 70T166 246t-62 297q0 114 21 227t64 218 108 196 155 157 201 106 250 38q266 0 404-154t139-409q0-100-16-200t-50-195-83-180-119-154-156-119l238-422H821zM682 309q54 0 102 22t89 63 74 97 56 124 35 145 13 160q0 118-47 177t-134 60q-54 0-102-22t-89-64-75-97-56-126-35-147-13-162q0-76 21-127t63-77 98-26z"/><glyph unicode="R" glyph-name="R" horiz-adv-x="1331" d="m33 0 309 1462h387q252 0 386-100t134-301q0-134-44-223t-109-144-129-82L1231 0H805L610 532h-73L424 0H33zm567 829h51q39 0 76 11t66 36 47 64 18 96q0 53-30 90t-105 37h-53l-70-334z"/><glyph unicode="S" glyph-name="S" horiz-adv-x="1122" d="M420-20Q311-20 213 5T43 76v350q80-49 188-87t201-38q37 0 65 8t47 23 28 37 10 51q0 37-22 69t-59 63-83 69q-67 55-117 115t-78 131-28 161q0 99 37 182t105 144 164 95 212 34q118 0 228-28t202-79l-135-297q-70 35-146 61t-145 27q-42 0-68-10t-40-27-19-36-6-37q0-31 13-59t49-63 99-83q81-60 132-122t76-130 24-151q0-109-37-196T832 105 658 12 420-20z"/><glyph unicode="T" glyph-name="T" horiz-adv-x="1130" d="m236 0 237 1139H156l69 323h1028l-71-323H864L627 0H236z"/><glyph unicode="U" glyph-name="U" horiz-adv-x="1436" d="M610-20q-152 0-261 54T183 185t-58 218q0 31 3 67t9 69l199 923h391L532 549q-6-29-10-59t-4-56q0-60 33-93t96-34q59 0 100 26t71 83 50 153l191 893h391l-199-932q-37-178-113-300T934 44 610-20z"/><glyph unicode="V" glyph-name="V" horiz-adv-x="1264" d="M254 0 150 1462h382l25-737q2-53 2-124t-5-139-11-108h8q12 54 30 112t37 110 33 81l350 805h414L690 0H254z"/><glyph unicode="W" glyph-name="W" horiz-adv-x="1915" d="m201 0-49 1462h370l-10-733q-1-88-5-182t-13-162h8q21 68 54 150t65 155l335 772h336V670q0-51-2-140t-8-161h8q16 53 39 123t48 141 48 129l277 700h387L1454 0H993v561q0 53 1 109t5 113 7 112h-9q-31-95-65-185t-72-180L635 0H201z"/><glyph unicode="X" glyph-name="X" horiz-adv-x="1358" d="m-125 0 563 776-223 686h416l123-469 309 469h448L973 737 1235 0H803L657 498 319 0h-444z"/><glyph unicode="Y" glyph-name="Y" horiz-adv-x="1237" d="m281 0 120 567-237 895h403l90-542 312 542h436L793 567 672 0H281z"/><glyph unicode="Z" glyph-name="Z" horiz-adv-x="1104" d="m-92 0 47 242 690 901H166l67 319h986l-52-245-700-898h543L942 0H-92z"/><glyph unicode="[" glyph-name="bracketleft" horiz-adv-x="737" d="m-53-344 393 1847h530l-55-254H600L315-90h215l-53-254H-53z"/><glyph unicode="\" glyph-name="backslash" horiz-adv-x="956" d="M459-20 221 1483h309L778-20H459z"/><glyph unicode="]" glyph-name="bracketright" horiz-adv-x="737" d="m-133-344 53 254h213l285 1339H203l55 254h528L393-344h-526z"/><glyph unicode="^" glyph-name="asciicircum" horiz-adv-x="1096" d="m-6 502 631 960h172l284-960H807l-156 569-360-569H-6z"/><glyph unicode="_" glyph-name="underscore" horiz-adv-x="922" d="m-184-379 57 246h930l-58-246h-929z"/><glyph unicode="`" glyph-name="grave" horiz-adv-x="723" d="M549 1241q-45 42-94 94t-92 108-68 105v21h395q9-44 21-94t31-104 42-105v-25H549z"/><glyph unicode="a" glyph-name="a" horiz-adv-x="1243" d="M406-20q-87 0-160 41T128 156 84 412q0 83 19 182t59 197 100 181 141 131 185 50q65 0 113-20t85-55 64-85h8l53 140h310L981 0H672l10 123h-8q-30-42-67-74T522-1 406-20zm159 311q44 0 81 40t63 105 39 137q6 31 9 62t3 63q0 65-20 104t-62 40q-32 0-61-23t-55-64-43-93-29-111-11-117q0-69 21-106t65-37z"/><glyph unicode="b" glyph-name="b" horiz-adv-x="1243" d="M657-20q-57 0-103 14t-86 47-81 84h-8L330 0H23l329 1556h387l-49-231q-12-62-28-120t-33-105-29-76h8q27 33 56 62t70 48 104 19q87 0 160-41t117-135 44-256q0-83-19-182t-58-198-100-180T841 30 657-20zm-94 311q32 0 62 23t55 64 44 93 29 110 11 117q0 70-21 107t-65 37q-30 0-56-18t-47-50-38-73-28-86-18-92-6-89q0-64 19-103t59-40z"/><glyph unicode="c" glyph-name="c" horiz-adv-x="1032" d="M506-20q-115 0-211 47T142 176 84 442q0 120 27 227t80 196 126 153 169 100 204 35q106 0 193-20t174-60L934 786q-51 23-110 41t-115 19q-60 0-104-37t-74-97-43-124-15-121q0-66 15-104t43-55 67-17q72 0 139 23t144 63V70Q801 27 713 4T506-20z"/><glyph unicode="d" glyph-name="d" horiz-adv-x="1237" d="M406-20q-87 0-160 41T128 156 84 412q0 83 19 182t58 197 100 181 141 131 184 50q62 0 103-18t72-53 62-81h8q0 13 2 55t9 97 16 102l62 301h391L981 0H672l10 123h-8q-28-39-63-71T527 0 406-20zm159 311q30 0 56 18t47 50 39 73 29 87 18 92 6 87q0 65-19 104t-61 40q-32 0-62-23t-55-64-44-93-29-111-11-117q0-69 21-106t65-37z"/><glyph unicode="e" glyph-name="e" horiz-adv-x="1186" d="M532-20q-143 0-243 54T137 188 84 428q0 139 39 269t120 233 203 163 287 60q191 0 299-86t109-229q0-94-36-170T995 536t-190-84-273-30h-59v-16q0-76 41-112t123-36q86 0 163 26t165 72V82Q874 36 777 8T532-20zm-20 684h29q87 0 138 23t73 58 22 70q0 32-20 54t-64 22q-45 0-83-35t-63-87-32-105z"/><glyph unicode="f" glyph-name="f" horiz-adv-x="840" d="M-2-492q-54 0-113 8t-94 19v303q28-7 58-12t59-6q74 0 112 30t52 95l190 897H96l43 190 189 96 16 74q21 96 57 165t89 113 121 66 155 21q80 0 155-16t128-42l-99-264q-29 14-63 22t-66 9q-35 0-59-18t-33-54l-16-71h211l-66-291H649L444-117q-23-108-75-193T226-443-2-492z"/><glyph unicode="g" glyph-name="g" horiz-adv-x="1170" d="M347-492q-212 0-337 75t-126 210q0 98 68 169T164 80q-37 23-60 60t-24 79q0 71 51 126t152 101q-65 52-98 122t-33 159q0 89 29 162t84 128q66 65 165 100t226 36q51 0 107-6t90-14h399l-41-207-160-52q5-20 7-43t3-51q0-93-32-169t-91-133q-61-59-149-91t-197-33q-38 0-69 3t-55 10q-20-11-34-22t-14-30q0-14 12-26 11-10 36-19t63-14l137-18q116-15 188-50t105-92 33-139q0-110-45-195T816-381q-82-55-200-83t-269-28zm37 254q57 0 111 7t91 27q25 13 39 32t15 45q0 14-4 24t-13 19q-19 19-54 27t-77 12L377-33q-52-7-88-23t-56-40-19-56q0-43 42-64t128-22zm200 836q35 0 61 31t42 84 16 112q0 23-3 41t-12 30q-7 12-18 18t-28 6q-32 0-55-22t-39-57-23-74-8-75q0-22 3-38t11-29q17-27 53-27z"/><glyph unicode="h" glyph-name="h" horiz-adv-x="1274" d="m23 0 329 1556h387l-53-249q-10-48-25-100t-31-100-32-83h8q35 45 77 73t91 42 105 14q106 0 171-44t97-117 31-161q0-56-7-115t-18-114L1026 0H639l129 618q6 26 12 66t6 76q0 43-22 64t-53 22q-38 0-72-29t-62-94-51-170L410 0H23z"/><glyph unicode="i" glyph-name="i" horiz-adv-x="666" d="m23 0 239 1133h389L410 0H23zm477 1241q-82 0-136 31t-55 110q0 68 27 114t77 71 122 24q77 0 133-31t57-110q0-94-55-151t-170-58z"/><glyph unicode="j" glyph-name="j" horiz-adv-x="666" d="M-57-492q-54 0-113 8t-94 19v303q37-12 62-15t50-3q41 0 76 14t62 47 37 86l247 1166h387L397-94q-21-102-73-193T179-435t-236-57zm565 1733q-82 0-136 31t-55 110q0 68 27 114t77 71 122 24q77 0 133-31t57-110q0-94-54-151t-171-58z"/><glyph unicode="k" glyph-name="k" horiz-adv-x="1264" d="m23 0 325 1556h387L596 893q-8-37-20-81t-23-82-21-62h9l391 465h442L883 621 1157 0H719L580 391l-101-53L410 0H23z"/><glyph unicode="l" glyph-name="l" horiz-adv-x="666" d="m23 0 329 1556h387L410 0H23z"/><glyph unicode="m" glyph-name="m" horiz-adv-x="1896" d="m23 0 239 1133h309l-16-187h8q40 75 86 120t105 66 137 21q117 0 180-53t90-154h8q43 71 95 116t114 68 135 23q140 0 213-85t74-249q0-46-5-98t-17-107L1653 0h-387l129 631q5 20 9 55t5 78q0 40-19 61t-51 21q-37 0-66-19t-53-57-43-95-34-132L1032 0H645l131 631q5 23 10 59t5 62q0 50-20 72t-52 22q-28 0-54-13t-50-47-45-90-42-145L410 0H23z"/><glyph unicode="n" glyph-name="n" horiz-adv-x="1274" d="m23 0 239 1133h309l-12-158h8q37 64 82 103t101 57 129 18q106 0 171-44t97-117 31-161q0-56-7-115t-18-114L1026 0H639l129 618q6 26 12 66t6 76q0 43-22 64t-53 22q-38 0-72-31t-63-96-50-166L410 0H23z"/><glyph unicode="o" glyph-name="o" horiz-adv-x="1243" d="M520-20q-139 0-236 51T135 179 84 416q0 116 26 224t78 202 129 163 178 109 228 39q139 0 236-51t149-148 51-237q0-116-26-224t-78-202-129-163T748 19 520-20zm43 290q34 0 64 26t56 71 43 104 28 125 10 133q0 44-10 73t-30 45-46 15q-34 0-64-26t-55-71-43-103-27-125-10-134q0-66 22-99t62-34z"/><glyph unicode="p" glyph-name="p" horiz-adv-x="1243" d="m-82-492 344 1625h309l-12-127h8q31 48 69 81t85 49 104 17q102 0 177-49t116-142 41-227q0-112-23-221t-66-206-105-170T824 22 651-20q-51 0-93 18t-77 50-61 77h-8q-7-80-17-159t-39-212l-51-246H-82zm655 783q32 0 61 23t52 64 41 93 27 110 10 117q0 70-21 107t-65 37q-30 0-55-18t-47-49-39-71-28-87-18-92-6-91q0-64 23-103t65-40z"/><glyph unicode="q" glyph-name="q" horiz-adv-x="1243" d="m485-492 68 293q15 63 31 122t32 109 27 79h-8q-26-36-59-65T498-2 387-20q-74 0-144 42T129 159 84 408q0 84 19 184t58 199 100 181 141 131 184 50q65 0 110-16t81-52 73-92h8l53 140h310L877-492H485zm80 783q30 0 56 18t47 50 39 73 29 87 18 92 6 87q0 65-19 104t-61 40q-32 0-62-23t-55-64-44-93-29-111-11-117q0-69 21-106t65-37z"/><glyph unicode="r" glyph-name="r" horiz-adv-x="895" d="m23 0 239 1133h309l-18-189h8q47 80 96 125t108 65 136 19q22 0 46-2t34-6l-84-383q-22 9-54 15t-69 7q-45 0-84-14t-72-47-58-88-44-137L410 0H23z"/><glyph unicode="s" glyph-name="s" horiz-adv-x="1028" d="M387-20Q274-20 186-4T31 43v311q92-50 171-70t160-20q24 0 56 4t56 20 24 46q0 23-10 41t-44 42-102 62q-70 39-115 85t-66 102-22 129q0 107 50 187t153 126 262 45q111 0 204-26t179-80L866 795q-56 37-127 65t-131 29q-35 0-55-17t-21-51q0-19 13-35t44-32 77-41q77-38 126-86t74-106 25-128q0-140-62-231T654 25 387-20z"/><glyph unicode="t" glyph-name="t" horiz-adv-x="936" d="M410-20q-148 0-224 63t-77 209q0 41 7 94t17 94l84 402H63l41 190 218 88 137 240h258l-49-227h288l-63-291H604l-84-383q-6-29-11-58t-5-47q0-34 17-48t46-15q38 0 86 13t97 34V47Q687 16 604-2T410-20z"/><glyph unicode="u" glyph-name="u" horiz-adv-x="1274" d="M395-20q-105 0-171 44t-97 117-31 160q0 57 7 116t18 113l127 603h387L506 516q-6-26-12-66t-7-75q0-43 22-64t54-22q34 0 68 31t65 96 52 166l116 551h387L1012 0H702l13 158h-8q-37-63-82-102T524-2 395-20z"/><glyph unicode="v" glyph-name="v" horiz-adv-x="1114" d="M233 0 88 1133h385l21-570q1-26 1-53t0-51-3-47h8q5 20 14 44t19 49 18 42l268 586h414L621 0H233z"/><glyph unicode="w" glyph-name="w" horiz-adv-x="1686" d="m168 0-66 1133h365V580q0-55-3-112t-9-106h8q8 33 18 66t20 66 21 61l217 578h408l-29-558q-1-30-3-87t-11-126h8q13 41 24 77t24 70 28 73l227 551h385L1262 0H840l14 449q2 52 5 117t9 132 11 121h-9q-14-56-33-117t-39-119-36-98L575 0H168z"/><glyph unicode="x" glyph-name="x" horiz-adv-x="1159" d="m-119 0 473 578-207 555h422l76-314 186 314h459L825 557 1053 0H625l-80 328L334 0h-453z"/><glyph unicode="y" glyph-name="y" horiz-adv-x="1114" d="M25-492q-58 0-95 5t-59 12v307q19-4 47-8t62-4q89 0 143 37t98 114l23 41L82 1133h389l39-521q3-34 3-66t1-63-2-61h8q10 31 22 66t25 70 23 58l223 517h416L559-143q-61-118-136-195T251-454 25-492z"/><glyph unicode="z" glyph-name="z" horiz-adv-x="993" d="M-41 0 2 221l502 613H156l67 299h811l-53-242-496-592h383L803 0H-41z"/><glyph unicode="{" glyph-name="braceleft" horiz-adv-x="735" d="M463-324q-196 0-278 74T102-47q0 32 3 62t12 65l37 174q3 12 4 23t2 20q0 66-36 101t-140 36l53 287q123 0 177 40t75 132l55 246q23 100 66 172t126 112 218 39h129l-62-280q-73-1-116-26t-60-103l-53-258q-25-115-100-163t-179-59v-8q89-29 129-87t41-146q0-19-3-38t-7-36L438 94q-3-15-4-26t-2-23q0-47 29-67t84-21v-281h-82z"/><glyph unicode="|" glyph-name="bar" horiz-adv-x="1159" d="M442-465v2013h271V-465H442z"/><glyph unicode="}" glyph-name="braceright" horiz-adv-x="735" d="M-123-324v281q73 3 111 14T43 9t27 77l53 258q25 116 99 163t179 58v8q-88 29-129 87t-41 147q0 18 4 37t7 37l34 163q4 16 5 27t2 23q0 43-32 65t-104 23l54 280h61q130 0 206-37t110-100 34-137q0-32-3-63t-11-66l-37-174q-3-13-4-23t-2-20q0-66 45-100t148-35l-58-287q-82 0-135-18t-84-56-45-100L371 0q-21-100-68-173T172-285t-221-39h-74z"/><glyph unicode="~" glyph-name="asciitilde" horiz-adv-x="1200" d="M561 592q-75 32-131 43t-104 12q-60 0-120-35T92 526v281q53 54 117 81t147 27q60 0 120-11t161-52q75-32 133-43t104-12q57 0 118 35t114 86V637q-52-54-117-81t-147-28q-60 0-120 12t-161 52z"/><glyph glyph-name="uni00A0" horiz-adv-x="532"/><glyph unicode="¡" glyph-name="exclamdown" horiz-adv-x="623" d="m-109-338 254 946h328L317-338h-426zM342 768q-86 0-133 41t-47 115q0 115 66 172t171 57q107 0 147-46t40-106q0-65-27-118t-81-84-136-31z"/><glyph unicode="¢" glyph-name="cent" horiz-adv-x="1188" d="m373-20 51 208q-115 32-192 124t-78 274q0 122 23 229t67 195 107 156 142 111 173 58l32 148h230l-33-150q69-10 123-29t108-47l-122-286q-64 31-115 45t-111 14q-60 0-103-38t-72-98-42-131-14-136q0-79 31-113t90-35q72 0 140 25t142 65V258q-69-37-142-59t-165-31L602-20H373z"/><glyph unicode="£" glyph-name="sterling" horiz-adv-x="1188" d="m-18 0 63 313q78 22 123 51t70 75 38 116l21 96H109l57 279h188l23 129q30 171 97 263t163 126 213 35q116 0 203-25t170-61l-144-299q-66 31-114 47t-99 16q-35 0-56-24t-36-93l-24-114h251l-57-279H692l-20-94q-20-92-81-146t-122-81h604L1001 0H-18z"/><glyph unicode="¤" glyph-name="currency" horiz-adv-x="1188" d="M909 231 784 354q-40-16-87-28t-97-13q-52 0-98 9t-88 30L291 233 109 416l127 123q-23 44-34 89t-12 95q0 51 13 97t33 87l-130 125 185 185 127-125q40 18 89 30t93 13q50 0 94-11t90-37l125 130 189-179-129-129q20-38 31-87t12-99q0-52-11-97t-32-89l123-123-183-183zM600 571q43 0 78 20t57 55 21 77q0 43-21 77t-56 54-79 20q-42 0-75-20t-54-54-20-77q0-42 20-76t53-55 76-21z"/><glyph unicode="¥" glyph-name="yen" horiz-adv-x="1188" d="m262 0 41 190H76l43 205h227l25 129H145l45 205h179l-187 733h385l72-487 293 487h393L836 729h184l-45-205H752l-27-129h223l-43-205H682L641 0H262z"/><glyph unicode="¦" glyph-name="brokenbar" horiz-adv-x="1159" d="M444 705v841h271V705H444zm0-1149v839h271v-839H444z"/><glyph unicode="§" glyph-name="section" horiz-adv-x="1036" d="M377-25Q268-25 181 1T37 70v249q85-52 173-86t185-34q86 0 118 35t32 69q0 26-13 48t-43 46-79 49q-76 42-132 90t-88 108-32 132q0 48 17 98t57 97 104 86q-38 38-59 90t-21 102q0 115 56 187t159 107 240 34q103 0 190-27t170-75l-100-224q-55 37-128 69t-165 32q-40 0-64-10t-36-27-11-37q0-35 25-67t125-78q92-43 145-92t76-104 23-116q0-84-23-140t-61-92-84-63q32-38 50-91t19-109q0-110-55-188T644 17 377-25zm227 668q29 20 51 51t23 76q0 36-16 66t-50 56-88 48q-24-12-42-32t-29-44-11-47q0-36 22-66t60-57 80-51z"/><glyph unicode="¨" glyph-name="dieresis" horiz-adv-x="1135" d="M993 1257q-73 0-121 26t-49 101q0 99 53 143t148 44q62 0 115-23t53-102q0-85-43-137t-156-52zm-487 0q-73 0-121 26t-49 101q0 99 53 143t148 44q41 0 80-9t64-37 26-79q0-85-44-137t-157-52z"/><glyph unicode="©" glyph-name="copyright" horiz-adv-x="1688" d="M844-20q-163 0-300 55T305 192 148 430 92 731q0 164 55 301t157 238 239 157 301 56q164 0 301-55t238-157 156-239 56-301q0-163-55-300t-157-239-238-156-301-56zm2 282q-221 0-333 129T401 735q0 140 48 244t146 161 241 58q92 0 170-20t151-58l-92-205q-52 28-102 42t-109 14q-79 0-125-61t-47-179q0-127 43-184t135-58q65 0 131 16t127 52V326q-63-32-127-48t-145-16zm-2-119q125 0 229 43t179 121 117 186 42 238q0 130-41 237t-117 186-180 122-229 43q-127 0-232-43t-181-121-117-186-42-238q0-130 41-237t118-186 181-122 232-43z"/><glyph unicode="ª" glyph-name="ordfeminine" horiz-adv-x="827" d="M352 729q-44 0-93 24t-85 84-35 164q0 80 22 163t66 153 108 114 148 44q80 0 126-27t87-72h9l36 86h199L770 741H575l9 86h-9q-38-41-92-69t-131-29zm129 182q34 0 59 19t42 50 27 67 15 70 5 61q0 44-17 79t-55 35q-34 0-60-27t-46-69-29-91-10-93q0-48 19-74t50-27z"/><glyph unicode="«" glyph-name="guillemotleft" horiz-adv-x="1276" d="M244 76 61 553v10l408 518 264-204-266-334 111-330L244 76zm559 0L608 582v10l424 495 260-210-278-306 123-358L803 76z"/><glyph unicode="¬" glyph-name="logicalnot" horiz-adv-x="1200" d="M1106 856V238H836v350H92v268h1014z"/><glyph unicode="­" glyph-name="uni00AD" horiz-adv-x="674" d="m23 393 63 312h553l-64-312H23z"/><glyph unicode="®" glyph-name="registered" horiz-adv-x="1688" d="M518 313v875h279q213 0 304-70t91-200q0-105-41-159t-100-83l194-363H967L821 633h-35V313H518zm268 496h11q58 0 91 21t34 77q0 54-33 70t-90 16h-13V809zm58-829q-163 0-300 55T305 192 148 430 92 731q0 164 55 301t157 238 239 157 301 56q164 0 301-55t238-157 156-239 56-301q0-163-55-300t-157-239-238-156-301-56zm0 163q125 0 229 43t179 121 117 186 42 238q0 130-41 237t-117 186-180 122-229 43q-127 0-232-43t-181-121-117-186-42-238q0-130 41-237t118-186 181-122 232-43z"/><glyph unicode="¯" glyph-name="overscore" horiz-adv-x="922" d="m207 1554 57 246h930l-57-246H207z"/><glyph unicode="°" glyph-name="degree" horiz-adv-x="864" d="M432 750q-107 0-190 46T111 924t-48 190q0 107 47 190t131 131 191 48q108 0 191-48t130-131 48-190q0-108-47-190T623 796t-191-46zm0 237q60 0 95 35t36 92q0 60-35 96t-96 37q-60 0-95-36t-36-97q0-57 35-92t96-35z"/><glyph unicode="±" glyph-name="plusminus" horiz-adv-x="1200" d="M92 0v268h1014V0H92zm641 944h373V676H733V315H465v361H92v268h373v367h268V944z"/><glyph unicode="²" glyph-name="uni00B2" horiz-adv-x="848" d="m125 850 43 205 276 211q68 51 107 86t57 62 17 50q0 28-19 40t-45 12q-35 0-85-18t-103-62l-119 190q81 62 168 92t221 31q128 0 215-58t88-159q0-74-33-134t-102-118-172-125l-78-49h320l-52-256H125z"/><glyph unicode="³" glyph-name="uni00B3" horiz-adv-x="848" d="M483 838q-107 0-178 16t-133 53v226q63-43 132-62t124-20q75 0 113 19t39 60q0 25-22 46t-91 22H346l43 195h96q48 0 83 9t55 29 20 50q0 28-22 42t-54 15q-38 0-78-12t-106-53l-100 182q80 49 157 71t185 23q83 0 152-23t110-70 41-116q0-104-65-154t-167-75v-8q92-23 129-70t37-113q0-76-43-140T691 877t-208-39z"/><glyph unicode="´" glyph-name="acute" horiz-adv-x="821" d="M229 1241v23q48 39 98 91t99 108 86 106h438v-15q-22-27-74-69t-118-89-131-88-113-67H229z"/><glyph unicode="µ" glyph-name="uni00B5" horiz-adv-x="1288" d="m-82-492 344 1625h387L520 516q-6-26-12-66t-6-75q0-43 22-64t54-22q49 0 81 26t56 89 47 178l117 551h387L1026 0H737l6 123h-8q-22-48-51-79T620-4t-75-16q-51 0-83 18t-48 59h-8q-4-53-11-102t-16-98-21-103l-53-246H-82z"/><glyph unicode="¶" glyph-name="paragraph" horiz-adv-x="1317" d="M647-260v819q-31-9-56-13t-69-5q-95 0-172 26t-133 84-85 155-30 236q0 147 32 246t93 158 143 84 183 26h633V-260H995v1587H838V-260H647z"/><glyph unicode="·" glyph-name="middot" horiz-adv-x="627" d="M289 532q-78 0-126 37t-48 115q0 122 73 177t171 56q80 0 130-37t50-118q0-132-68-181t-182-49z"/><glyph unicode="¸" glyph-name="cedilla" horiz-adv-x="383" d="M-29-492q-61 0-108 8t-84 21v205q34-10 83-18t68-9q22 0 37 5t23 15 8 29q0 28-26 55t-119 46L-72 0h205l-24-41q78-16 128-61t50-134q0-80-37-137t-107-88-172-31z"/><glyph unicode="¹" glyph-name="uni00B9" horiz-adv-x="848" d="m365 850 81 364q16 73 31 126t25 81q-20-16-44-36t-30-23l-119-78-119 184 426 261h252L682 850H365z"/><glyph unicode="º" glyph-name="ordmasculine" horiz-adv-x="817" d="M465 727q-145 0-227 78t-82 219q0 89 26 171t79 146 133 101 190 37q138 0 222-79t85-231q0-85-25-164t-76-142-133-99-192-37zm24 205q33 0 58 22t41 59 25 80 8 83q0 44-15 71t-47 27q-34 0-58-25t-41-65-24-81-8-75q0-52 16-74t45-22z"/><glyph unicode="»" glyph-name="guillemotright" horiz-adv-x="1276" d="M807 43 543 248l266 334-111 329 334 138 182-478v-10L807 43zm-563-8L-14 248l276 305-121 358 332 138 195-506v-11L244 35z"/><glyph unicode="¼" glyph-name="onequarter" horiz-adv-x="1909" d="m307 0 1089 1462h291L604 0H307zm40 584 81 364q16 73 31 126t25 81q-20-16-44-36t-30-23l-119-78-119 184 426 261h252L664 584H347zM1362 0l27 123H992l30 178 490 578h325l-118-557h112l-41-199h-112L1651 0h-289zm-94 322h162l41 157q11 41 25 91t22 69q-17-26-51-69t-56-70l-143-178z"/><glyph unicode="½" glyph-name="onehalf" horiz-adv-x="2001" d="m293 0 1089 1462h291L590 0H293zm54 586 81 364q16 73 31 126t25 81q-20-16-44-36t-30-23l-119-78-119 184 426 261h252L664 586H347zM1098 0l43 205 276 211q68 51 107 86t57 62 17 50q0 28-19 40t-45 12q-35 0-85-18t-103-62l-119 190q81 62 168 92t221 31q128 0 215-58t88-159q0-74-33-134t-102-118-172-125l-78-49h320L1802 0h-704z"/><glyph unicode="¾" glyph-name="threequarters" horiz-adv-x="1954" d="M432 572q-107 0-178 16t-133 53v226q63-43 132-62t124-20q75 0 113 19t39 60q0 25-22 46t-91 22H295l43 195h96q48 0 83 9t55 29 20 50q0 28-22 42t-54 15q-38 0-78-12t-106-53l-100 182q80 49 157 71t185 23q83 0 152-23t110-70 41-116q0-104-65-154t-167-75v-8q92-23 129-70t37-113q0-76-43-140T640 611t-208-39zM361 0l1089 1462h291L658 0H361zm1046 0 27 123h-397l30 178 490 578h325l-118-557h112l-41-199h-112L1696 0h-289zm-94 322h162l41 157q11 41 25 91t22 69q-17-26-51-69t-56-70l-143-178z"/><glyph unicode="¿" glyph-name="questiondown" horiz-adv-x="999" d="M743 617q-20-112-50-181t-83-122-139-113q-66-44-101-73t-48-52-13-47q0-31 19-50t71-20q56 0 137 27t176 82l119-283q-95-56-213-95t-248-40q-202 0-320 90T-68-12q0 113 39 186T74 297t135 93q78 47 115 78t56 64 35 85h328zm-84 541q106 0 146-46t41-106q0-98-60-165t-184-68q-86 0-133 41t-47 114q0 116 66 173t171 57z"/><glyph unicode="À" glyph-name="Agrave" horiz-adv-x="1384" d="m-121 0 744 1462h503L1249 0H868l-10 274H410L285 0h-406zm674 586h293l-15 420q-1 49-2 97t0 91h-6q-15-46-32-90t-39-90L553 586zm301 985q-45 42-94 94t-92 108-68 105v21h395q9-44 21-94t31-104 42-105v-25H854z"/><glyph unicode="Á" glyph-name="Aacute" horiz-adv-x="1384" d="m-121 0 744 1462h503L1249 0H868l-10 274H410L285 0h-406zm674 586h293l-15 420q-1 49-2 97t0 91h-6q-15-46-32-90t-39-90L553 586zm149 985v23q48 39 98 91t99 108 86 106h438v-15q-22-27-74-69t-118-89-131-88-113-67H702z"/><glyph unicode="Â" glyph-name="Acircumflex" horiz-adv-x="1384" d="m-121 0 744 1462h503L1249 0H868l-10 274H410L285 0h-406zm674 586h293l-15 420q-1 49-2 97t0 91h-6q-15-46-32-90t-39-90L553 586zm-134 985v23q48 43 104 97t111 109 95 99h446q21-45 51-101t65-110 64-94v-23h-266q-22 20-51 52t-58 66-47 56q-56-44-116-89t-123-85H419z"/><glyph unicode="Ã" glyph-name="Atilde" horiz-adv-x="1384" d="m-121 0 744 1462h503L1249 0H868l-10 274H410L285 0h-406zm674 586h293l-15 420q-1 49-2 97t0 91h-6q-15-46-32-90t-39-90L553 586zm-64 981q23 124 67 199t106 109 141 34q44 0 81-15t71-34 67-34 67-15q35 0 65 24t50 76h190q-25-126-70-201t-108-108-143-33q-48 0-88 15t-76 34-68 34-67 15q-31 0-60-27t-36-73H489z"/><glyph unicode="Ä" glyph-name="Adieresis" horiz-adv-x="1384" d="m-121 0 744 1462h503L1249 0H868l-10 274H410L285 0h-406zm674 586h293l-15 420q-1 49-2 97t0 91h-6q-15-46-32-90t-39-90L553 586zm606 1001q-73 0-121 26t-49 101q0 99 53 143t148 44q62 0 115-23t53-102q0-85-43-137t-156-52zm-487 0q-73 0-121 26t-49 101q0 99 53 143t148 44q41 0 80-9t64-37 26-79q0-85-44-137t-157-52z"/><glyph unicode="Å" glyph-name="Aring" horiz-adv-x="1384" d="m-121 0 744 1462h503L1249 0H868l-10 274H410L285 0h-406zm674 586h293l-15 420q-1 49-2 97t0 91h-6q-15-46-32-90t-39-90L553 586zm367 981q-118 0-193 67t-75 185q0 119 75 186t193 68q112 0 190-67t78-185q0-118-77-186t-191-68zm0 168q35 0 61 23t27 61q0 38-26 62t-62 24q-35 0-61-24t-27-62q0-37 23-60t65-24z"/><glyph unicode="Æ" glyph-name="AE" horiz-adv-x="1937" d="m-125 0 909 1462h1213l-66-317h-477l-47-230h444l-71-317h-445l-57-276h477L1688 0H819l58 274H459L289 0h-414zm787 602h286l113 543h-68L662 602z"/><glyph unicode="Ç" glyph-name="Ccedilla" horiz-adv-x="1290" d="M645-20q-183 0-303 71T163 251t-59 298q0 131 28 264t87 253 151 215 219 149 292 55q146 0 262-34t219-97l-148-305q-93 55-171 82t-162 28q-71 0-130-32t-106-89-79-131-49-161-17-177q0-133 56-199t161-67q89 0 174 22t194 68V70Q978 22 869 1T645-20zm-60-472q-61 0-108 8t-84 21v205q34-10 83-18t68-9q22 0 37 5t23 15 8 29q0 28-26 55t-119 46L542 0h205l-24-41q78-16 128-61t50-134q0-80-37-137t-107-88-172-31z"/><glyph unicode="È" glyph-name="Egrave" horiz-adv-x="1151" d="m33 0 309 1462h868l-65-317H668l-47-230h444l-72-317H549l-57-276h477L901 0H33zm725 1571q-45 42-94 94t-92 108-68 105v21h395q9-44 21-94t31-104 42-105v-25H758z"/><glyph unicode="É" glyph-name="Eacute" horiz-adv-x="1151" d="m33 0 309 1462h868l-65-317H668l-47-230h444l-72-317H549l-57-276h477L901 0H33zm573 1571v23q48 39 98 91t99 108 86 106h438v-15q-22-27-74-69t-118-89-131-88-113-67H606z"/><glyph unicode="Ê" glyph-name="Ecircumflex" horiz-adv-x="1151" d="m33 0 309 1462h868l-65-317H668l-47-230h444l-72-317H549l-57-276h477L901 0H33zm290 1571v23q48 43 104 97t111 109 95 99h446q21-45 51-101t65-110 64-94v-23H993q-22 20-51 52t-58 66-47 56q-56-44-116-89t-123-85H323z"/><glyph unicode="Ë" glyph-name="Edieresis" horiz-adv-x="1151" d="m33 0 309 1462h868l-65-317H668l-47-230h444l-72-317H549l-57-276h477L901 0H33zm1030 1587q-73 0-121 26t-49 101q0 99 53 143t148 44q62 0 115-23t53-102q0-85-43-137t-156-52zm-487 0q-73 0-121 26t-49 101q0 99 53 143t148 44q41 0 80-9t64-37 26-79q0-85-44-137t-157-52z"/><glyph unicode="Ì" glyph-name="Igrave" horiz-adv-x="723" d="m33 0 309 1462h391L424 0H33zm491 1571q-45 42-94 94t-92 108-68 105v21h395q9-44 21-94t31-104 42-105v-25H524z"/><glyph unicode="Í" glyph-name="Iacute" horiz-adv-x="723" d="m33 0 309 1462h391L424 0H33zm345 1571v23q48 39 98 91t99 108 86 106h438v-15q-22-27-74-69t-118-89-131-88-113-67H378z"/><glyph unicode="Î" glyph-name="Icircumflex" horiz-adv-x="723" d="m33 0 309 1462h391L424 0H33zm55 1571v23q48 43 104 97t111 109 95 99h446q21-45 51-101t65-110 64-94v-23H758q-22 20-51 52t-58 66-47 56q-56-44-116-89t-123-85H88z"/><glyph unicode="Ï" glyph-name="Idieresis" horiz-adv-x="723" d="m33 0 309 1462h391L424 0H33zm794 1587q-73 0-121 26t-49 101q0 99 53 143t148 44q62 0 115-23t53-102q0-85-43-137t-156-52zm-487 0q-73 0-121 26t-49 101q0 99 53 143t148 44q41 0 80-9t64-37 26-79q0-85-44-137t-157-52z"/><glyph unicode="Ð" glyph-name="Eth" horiz-adv-x="1401" d="m33 0 119 563H10l70 320h139l123 579h430q271 0 418-143t147-410q0-170-34-312t-101-253-165-187T811 40 526 0H33zm461 324h69q67 0 125 26t105 76 80 120 51 160 18 195q0 116-54 179t-151 63h-71l-56-260h178l-69-320H543l-49-239z"/><glyph unicode="Ñ" glyph-name="Ntilde" horiz-adv-x="1618" d="m33 0 309 1462h455l286-983h9q5 44 14 112t21 138 22 121l131 612h348L1319 0H864L575 1028h-8q-1-20-6-68t-13-111-17-125-21-114L381 0H33zm583 1567q23 124 67 199t106 109 141 34q44 0 81-15t71-34 67-34 67-15q35 0 65 24t50 76h190q-25-126-70-201t-108-108-143-33q-48 0-88 15t-76 34-68 34-67 15q-31 0-60-27t-36-73H616z"/><glyph unicode="Ò" glyph-name="Ograve" horiz-adv-x="1509" d="M666-20q-187 0-311 70T167 246t-63 297q0 114 21 227t64 218 108 196 153 157 199 106 248 38q270 0 409-154t140-409q0-114-20-227t-62-219-106-196-150-157T911 18 666-20zm34 323q49 0 94 22t84 62 71 97 55 125 35 147 12 162q0 113-48 178t-139 65q-55 0-103-25t-88-69-73-103-54-128-34-143-12-148q0-79 22-133t67-81 111-28zm203 1268q-45 42-94 94t-92 108-68 105v21h395q9-44 21-94t31-104 42-105v-25H903z"/><glyph unicode="Ó" glyph-name="Oacute" horiz-adv-x="1509" d="M666-20q-187 0-311 70T167 246t-63 297q0 114 21 227t64 218 108 196 153 157 199 106 248 38q270 0 409-154t140-409q0-114-20-227t-62-219-106-196-150-157T911 18 666-20zm34 323q49 0 94 22t84 62 71 97 55 125 35 147 12 162q0 113-48 178t-139 65q-55 0-103-25t-88-69-73-103-54-128-34-143-12-148q0-79 22-133t67-81 111-28zm51 1268v23q48 39 98 91t99 108 86 106h438v-15q-22-27-74-69t-118-89-131-88-113-67H751z"/><glyph unicode="Ô" glyph-name="Ocircumflex" horiz-adv-x="1509" d="M666-20q-187 0-311 70T167 246t-63 297q0 114 21 227t64 218 108 196 153 157 199 106 248 38q270 0 409-154t140-409q0-114-20-227t-62-219-106-196-150-157T911 18 666-20zm34 323q49 0 94 22t84 62 71 97 55 125 35 147 12 162q0 113-48 178t-139 65q-55 0-103-25t-88-69-73-103-54-128-34-143-12-148q0-79 22-133t67-81 111-28zM469 1571v23q48 43 104 97t111 109 95 99h446q21-45 51-101t65-110 64-94v-23h-266q-22 20-51 52t-58 66-47 56q-56-44-116-89t-123-85H469z"/><glyph unicode="Õ" glyph-name="Otilde" horiz-adv-x="1509" d="M666-20q-187 0-311 70T167 246t-63 297q0 114 21 227t64 218 108 196 153 157 199 106 248 38q270 0 409-154t140-409q0-114-20-227t-62-219-106-196-150-157T911 18 666-20zm34 323q49 0 94 22t84 62 71 97 55 125 35 147 12 162q0 113-48 178t-139 65q-55 0-103-25t-88-69-73-103-54-128-34-143-12-148q0-79 22-133t67-81 111-28zM538 1567q23 124 67 199t106 109 141 34q44 0 81-15t71-34 67-34 67-15q35 0 65 24t50 76h190q-25-126-70-201t-108-108-143-33q-48 0-88 15t-76 34-68 34-67 15q-31 0-60-27t-36-73H538z"/><glyph unicode="Ö" glyph-name="Odieresis" horiz-adv-x="1509" d="M666-20q-187 0-311 70T167 246t-63 297q0 114 21 227t64 218 108 196 153 157 199 106 248 38q270 0 409-154t140-409q0-114-20-227t-62-219-106-196-150-157T911 18 666-20zm34 323q49 0 94 22t84 62 71 97 55 125 35 147 12 162q0 113-48 178t-139 65q-55 0-103-25t-88-69-73-103-54-128-34-143-12-148q0-79 22-133t67-81 111-28zm508 1284q-73 0-121 26t-49 101q0 99 53 143t148 44q62 0 115-23t53-102q0-85-43-137t-156-52zm-487 0q-73 0-121 26t-49 101q0 99 53 143t148 44q41 0 80-9t64-37 26-79q0-85-44-137t-157-52z"/><glyph unicode="×" glyph-name="multiply" horiz-adv-x="1200" d="m868 1180 189-183-275-274 271-272-185-185-274 271-270-269-181 187 265 268-267 268 183 189 270-267 274 267z"/><glyph unicode="Ø" glyph-name="Oslash" horiz-adv-x="1509" d="M254-86 94 31l117 145q-54 71-80 163t-27 204q0 114 21 227t63 218 107 196 150 157 194 106 240 38q95 0 173-19t142-53l92 115 156-119-99-125q51-70 77-162t26-200q0-114-21-227t-63-219-105-195-148-157T918 19 684-20q-98 0-178 17T360 49L254-86zm446 389q51 0 96 20t85 57 70 89 53 115 33 135 12 151v45L586 332q23-14 51-21t63-8zM502 539l465 589q-22 16-51 24t-64 9q-51 0-96-21t-85-60-70-92-53-117-34-135-12-148v-49z"/><glyph unicode="Ù" glyph-name="Ugrave" horiz-adv-x="1436" d="M610-20q-152 0-261 54T183 185t-58 218q0 31 3 67t9 69l199 923h391L532 549q-6-29-10-59t-4-56q0-60 33-93t96-34q59 0 100 26t71 83 50 153l191 893h391l-199-932q-37-178-113-300T934 44 610-20zm246 1591q-45 42-94 94t-92 108-68 105v21h395q9-44 21-94t31-104 42-105v-25H856z"/><glyph unicode="Ú" glyph-name="Uacute" horiz-adv-x="1436" d="M610-20q-152 0-261 54T183 185t-58 218q0 31 3 67t9 69l199 923h391L532 549q-6-29-10-59t-4-56q0-60 33-93t96-34q59 0 100 26t71 83 50 153l191 893h391l-199-932q-37-178-113-300T934 44 610-20zm94 1591v23q48 39 98 91t99 108 86 106h438v-15q-22-27-74-69t-118-89-131-88-113-67H704z"/><glyph unicode="Û" glyph-name="Ucircumflex" horiz-adv-x="1436" d="M610-20q-152 0-261 54T183 185t-58 218q0 31 3 67t9 69l199 923h391L532 549q-6-29-10-59t-4-56q0-60 33-93t96-34q59 0 100 26t71 83 50 153l191 893h391l-199-932q-37-178-113-300T934 44 610-20zM422 1571v23q48 43 104 97t111 109 95 99h446q21-45 51-101t65-110 64-94v-23h-266q-22 20-51 52t-58 66-47 56q-56-44-116-89t-123-85H422z"/><glyph unicode="Ü" glyph-name="Udieresis" horiz-adv-x="1436" d="M610-20q-152 0-261 54T183 185t-58 218q0 31 3 67t9 69l199 923h391L532 549q-6-29-10-59t-4-56q0-60 33-93t96-34q59 0 100 26t71 83 50 153l191 893h391l-199-932q-37-178-113-300T934 44 610-20zm551 1607q-73 0-121 26t-49 101q0 99 53 143t148 44q62 0 115-23t53-102q0-85-43-137t-156-52zm-487 0q-73 0-121 26t-49 101q0 99 53 143t148 44q41 0 80-9t64-37 26-79q0-85-44-137t-157-52z"/><glyph unicode="Ý" glyph-name="Yacute" horiz-adv-x="1237" d="m281 0 120 567-237 895h403l90-542 312 542h436L793 567 672 0H281zm298 1571v23q48 39 98 91t99 108 86 106h438v-15q-22-27-74-69t-118-89-131-88-113-67H579z"/><glyph unicode="Þ" glyph-name="Thorn" horiz-adv-x="1276" d="m33 0 309 1462h391l-43-213h25q180 0 288-59t157-158 48-221q0-131-46-231t-132-169-203-102-260-35h-86L424 0H33zm518 594h63q63 0 108 21t70 67 25 117q0 53-38 93t-111 40h-45l-72-338z"/><glyph unicode="ß" glyph-name="germandbls" horiz-adv-x="1460" d="M-53-492q-54 0-113 8t-94 19v303q28-7 58-12t59-6q74 0 112 30t51 95l244 1151q32 151 102 256t195 160 322 55q261 0 388-106t128-267q0-83-24-144t-71-107-118-79q-83-40-100-65t-17-37q0-35 24-55t64-41 84-52q59-41 90-99t31-142q0-97-48-187T1156 38 862-20q-95 0-159 12T588 25v299q53-26 131-44t139-18q59 0 87 22t28 50q0 22-8 38t-37 39-88 60q-103 66-134 124t-32 118q0 71 22 117t69 83 116 76q47 27 75 51t41 50 13 55q0 41-31 80t-127 39q-52 0-94-22t-70-66-43-109L393-117q-23-108-75-193T175-443t-228-49z"/><glyph unicode="à" glyph-name="agrave" horiz-adv-x="1243" d="M406-20q-87 0-160 41T128 156 84 412q0 83 19 182t59 197 100 181 141 131 185 50q65 0 113-20t85-55 64-85h8l53 140h310L981 0H672l10 123h-8q-30-42-67-74T522-1 406-20zm159 311q44 0 81 40t63 105 39 137q6 31 9 62t3 63q0 65-20 104t-62 40q-32 0-61-23t-55-64-43-93-29-111-11-117q0-69 21-106t65-37zm146 950q-45 42-94 94t-92 108-68 105v21h395q9-44 21-94t31-104 42-105v-25H711z"/><glyph unicode="á" glyph-name="aacute" horiz-adv-x="1243" d="M406-20q-87 0-160 41T128 156 84 412q0 83 19 182t59 197 100 181 141 131 185 50q65 0 113-20t85-55 64-85h8l53 140h310L981 0H672l10 123h-8q-30-42-67-74T522-1 406-20zm159 311q44 0 81 40t63 105 39 137q6 31 9 62t3 63q0 65-20 104t-62 40q-32 0-61-23t-55-64-43-93-29-111-11-117q0-69 21-106t65-37zm-6 950v23q48 39 98 91t99 108 86 106h438v-15q-22-27-74-69t-118-89-131-88-113-67H559z"/><glyph unicode="â" glyph-name="acircumflex" horiz-adv-x="1243" d="M406-20q-87 0-160 41T128 156 84 412q0 83 19 182t59 197 100 181 141 131 185 50q65 0 113-20t85-55 64-85h8l53 140h310L981 0H672l10 123h-8q-30-42-67-74T522-1 406-20zm159 311q44 0 81 40t63 105 39 137q6 31 9 62t3 63q0 65-20 104t-62 40q-32 0-61-23t-55-64-43-93-29-111-11-117q0-69 21-106t65-37zm-289 950v23q48 43 104 97t111 109 95 99h446q21-45 51-101t65-110 64-94v-23H946q-22 20-51 52t-58 66-47 56q-56-44-116-89t-123-85H276z"/><glyph unicode="ã" glyph-name="atilde" horiz-adv-x="1243" d="M406-20q-87 0-160 41T128 156 84 412q0 83 19 182t59 197 100 181 141 131 185 50q65 0 113-20t85-55 64-85h8l53 140h310L981 0H672l10 123h-8q-30-42-67-74T522-1 406-20zm159 311q44 0 81 40t63 105 39 137q6 31 9 62t3 63q0 65-20 104t-62 40q-32 0-61-23t-55-64-43-93-29-111-11-117q0-69 21-106t65-37zm-219 946q23 124 67 199t106 109 141 34q44 0 81-15t71-34 67-34 67-15q35 0 65 24t50 76h190q-25-126-70-201t-108-108-143-33q-48 0-88 15t-76 34-68 34-67 15q-31 0-60-27t-36-73H346z"/><glyph unicode="ä" glyph-name="adieresis" horiz-adv-x="1243" d="M406-20q-87 0-160 41T128 156 84 412q0 83 19 182t59 197 100 181 141 131 185 50q65 0 113-20t85-55 64-85h8l53 140h310L981 0H672l10 123h-8q-30-42-67-74T522-1 406-20zm159 311q44 0 81 40t63 105 39 137q6 31 9 62t3 63q0 65-20 104t-62 40q-32 0-61-23t-55-64-43-93-29-111-11-117q0-69 21-106t65-37zm451 966q-73 0-121 26t-49 101q0 99 53 143t148 44q62 0 115-23t53-102q0-85-43-137t-156-52zm-487 0q-73 0-121 26t-49 101q0 99 53 143t148 44q41 0 80-9t64-37 26-79q0-85-44-137t-157-52z"/><glyph unicode="å" glyph-name="aring" horiz-adv-x="1243" d="M406-20q-87 0-160 41T128 156 84 412q0 83 19 182t59 197 100 181 141 131 185 50q65 0 113-20t85-55 64-85h8l53 140h310L981 0H672l10 123h-8q-30-42-67-74T522-1 406-20zm159 311q44 0 81 40t63 105 39 137q6 31 9 62t3 63q0 65-20 104t-62 40q-32 0-61-23t-55-64-43-93-29-111-11-117q0-69 21-106t65-37zm211 946q-118 0-193 67t-75 185q0 119 75 186t193 68q112 0 190-67t78-185q0-118-77-186t-191-68zm0 168q35 0 61 23t27 61q0 38-26 62t-62 24q-35 0-61-24t-27-62q0-37 23-60t65-24z"/><glyph unicode="æ" glyph-name="ae" horiz-adv-x="1788" d="M406-20q-87 0-160 41T128 156 84 412q0 83 19 182t59 197 100 181 141 131 185 50q65 0 112-18t83-53 67-89h8l53 140h207v-95q48 47 121 81t158 34q157 0 251-86t95-229q0-94-36-170t-110-132-189-84-273-30h-60v-16q0-76 41-112t123-36q86 0 163 26t165 72V82q-79-46-162-74t-213-28q-91 0-156 28T930 92L899 0H672l10 123h-8q-30-42-67-74T522-1 406-20zm159 311q33 0 62 23t53 64 41 90 27 105q6 31 8 62t2 63q0 65-23 104t-65 40q-32 0-61-23t-52-64-41-93-27-111-10-117q0-69 21-106t65-37zm549 373h29q87 0 138 23t73 58 22 70q0 32-20 54t-64 22q-45 0-83-35t-63-87-32-105z"/><glyph unicode="ç" glyph-name="ccedilla" horiz-adv-x="1032" d="M506-20q-115 0-211 47T142 176 84 442q0 120 27 227t80 196 126 153 169 100 204 35q106 0 193-20t174-60L934 786q-51 23-110 41t-115 19q-60 0-104-37t-74-97-43-124-15-121q0-66 15-104t43-55 67-17q72 0 139 23t144 63V70Q801 27 713 4T506-20zM385-492q-61 0-108 8t-84 21v205q34-10 83-18t68-9q22 0 37 5t23 15 8 29q0 28-26 55t-119 46L342 0h205l-24-41q78-16 128-61t50-134q0-80-37-137t-107-88-172-31z"/><glyph unicode="è" glyph-name="egrave" horiz-adv-x="1186" d="M532-20q-143 0-243 54T137 188 84 428q0 139 39 269t120 233 203 163 287 60q191 0 299-86t109-229q0-94-36-170T995 536t-190-84-273-30h-59v-16q0-76 41-112t123-36q86 0 163 26t165 72V82Q874 36 777 8T532-20zm-20 684h29q87 0 138 23t73 58 22 70q0 32-20 54t-64 22q-45 0-83-35t-63-87-32-105zm180 577q-45 42-94 94t-92 108-68 105v21h395q9-44 21-94t31-104 42-105v-25H692z"/><glyph unicode="é" glyph-name="eacute" horiz-adv-x="1186" d="M532-20q-143 0-243 54T137 188 84 428q0 139 39 269t120 233 203 163 287 60q191 0 299-86t109-229q0-94-36-170T995 536t-190-84-273-30h-59v-16q0-76 41-112t123-36q86 0 163 26t165 72V82Q874 36 777 8T532-20zm-20 684h29q87 0 138 23t73 58 22 70q0 32-20 54t-64 22q-45 0-83-35t-63-87-32-105zm28 577v23q48 39 98 91t99 108 86 106h438v-15q-22-27-74-69t-118-89-131-88-113-67H540z"/><glyph unicode="ê" glyph-name="ecircumflex" horiz-adv-x="1186" d="M532-20q-143 0-243 54T137 188 84 428q0 139 39 269t120 233 203 163 287 60q191 0 299-86t109-229q0-94-36-170T995 536t-190-84-273-30h-59v-16q0-76 41-112t123-36q86 0 163 26t165 72V82Q874 36 777 8T532-20zm-20 684h29q87 0 138 23t73 58 22 70q0 32-20 54t-64 22q-45 0-83-35t-63-87-32-105zm-254 577v23q48 43 104 97t111 109 95 99h446q21-45 51-101t65-110 64-94v-23H928q-22 20-51 52t-58 66-47 56q-56-44-116-89t-123-85H258z"/><glyph unicode="ë" glyph-name="edieresis" horiz-adv-x="1186" d="M532-20q-143 0-243 54T137 188 84 428q0 139 39 269t120 233 203 163 287 60q191 0 299-86t109-229q0-94-36-170T995 536t-190-84-273-30h-59v-16q0-76 41-112t123-36q86 0 163 26t165 72V82Q874 36 777 8T532-20zm-20 684h29q87 0 138 23t73 58 22 70q0 32-20 54t-64 22q-45 0-83-35t-63-87-32-105zm485 593q-73 0-121 26t-49 101q0 99 53 143t148 44q62 0 115-23t53-102q0-85-43-137t-156-52zm-487 0q-73 0-121 26t-49 101q0 99 53 143t148 44q41 0 80-9t64-37 26-79q0-85-44-137t-157-52z"/><glyph unicode="ì" glyph-name="igrave" horiz-adv-x="666" d="m23 0 239 1133h389L410 0H23zm659 1241q-45 42-94 94t-92 108-68 105v21h395q9-44 21-94t31-104 42-105v-25H682z"/><glyph unicode="í" glyph-name="iacute" horiz-adv-x="666" d="m23 0 239 1133h389L410 0H23zm251 1241v23q48 39 98 91t99 108 86 106h438v-15q-22-27-74-69t-118-89-131-88-113-67H274z"/><glyph unicode="î" glyph-name="icircumflex" horiz-adv-x="666" d="m23 0 239 1133h389L410 0H23zM-9 1241v23q48 43 104 97t111 109 95 99h446q21-45 51-101t65-110 64-94v-23H661q-22 20-51 52t-58 66-47 56q-56-44-116-89t-123-85H-9z"/><glyph unicode="ï" glyph-name="idieresis" horiz-adv-x="666" d="m23 0 239 1133h389L410 0H23zm708 1257q-73 0-121 26t-49 101q0 99 53 143t148 44q62 0 115-23t53-102q0-85-43-137t-156-52zm-487 0q-73 0-121 26t-49 101q0 99 53 143t148 44q41 0 80-9t64-37 26-79q0-85-44-137t-157-52z"/><glyph unicode="ð" glyph-name="eth" horiz-adv-x="1155" d="M520-20q-133 0-231 53T138 187 84 426q0 122 33 229t99 187 159 126 217 46q77 0 125-26t78-62l10 4q-7 60-30 126t-60 120l-273-127-82 168 220 102q-23 20-47 38t-48 36l115 180q63-28 121-62t110-75l238 110 82-166-184-90q49-61 84-155t54-203 19-215q0-124-20-235t-64-203-115-159T754 17 520-20zm35 280q38 0 67 21t51 56 35 76 20 83 7 75q0 38-4 68t-15 51-26 32-39 11q-49 0-83-34t-56-86-31-107-10-98q0-74 21-111t63-37z"/><glyph unicode="ñ" glyph-name="ntilde" horiz-adv-x="1274" d="m23 0 239 1133h309l-12-158h8q37 64 82 103t101 57 129 18q106 0 171-44t97-117 31-161q0-56-7-115t-18-114L1026 0H639l129 618q6 26 12 66t6 76q0 43-22 64t-53 22q-38 0-72-31t-63-96-50-166L410 0H23zm354 1237q23 124 67 199t106 109 141 34q44 0 81-15t71-34 67-34 67-15q35 0 65 24t50 76h190q-25-126-70-201t-108-108-143-33q-48 0-88 15t-76 34-68 34-67 15q-31 0-60-27t-36-73H377z"/><glyph unicode="ò" glyph-name="ograve" horiz-adv-x="1243" d="M520-20q-139 0-236 51T135 179 84 416q0 116 26 224t78 202 129 163 178 109 228 39q139 0 236-51t149-148 51-237q0-116-26-224t-78-202-129-163T748 19 520-20zm43 290q34 0 64 26t56 71 43 104 28 125 10 133q0 44-10 73t-30 45-46 15q-34 0-64-26t-55-71-43-103-27-125-10-134q0-66 22-99t62-34zm142 971q-45 42-94 94t-92 108-68 105v21h395q9-44 21-94t31-104 42-105v-25H705z"/><glyph unicode="ó" glyph-name="oacute" horiz-adv-x="1243" d="M520-20q-139 0-236 51T135 179 84 416q0 116 26 224t78 202 129 163 178 109 228 39q139 0 236-51t149-148 51-237q0-116-26-224t-78-202-129-163T748 19 520-20zm43 290q34 0 64 26t56 71 43 104 28 125 10 133q0 44-10 73t-30 45-46 15q-34 0-64-26t-55-71-43-103-27-125-10-134q0-66 22-99t62-34zm-10 971v23q48 39 98 91t99 108 86 106h438v-15q-22-27-74-69t-118-89-131-88-113-67H553z"/><glyph unicode="ô" glyph-name="ocircumflex" horiz-adv-x="1243" d="M520-20q-139 0-236 51T135 179 84 416q0 116 26 224t78 202 129 163 178 109 228 39q139 0 236-51t149-148 51-237q0-116-26-224t-78-202-129-163T748 19 520-20zm43 290q34 0 64 26t56 71 43 104 28 125 10 133q0 44-10 73t-30 45-46 15q-34 0-64-26t-55-71-43-103-27-125-10-134q0-66 22-99t62-34zm-293 971v23q48 43 104 97t111 109 95 99h446q21-45 51-101t65-110 64-94v-23H940q-22 20-51 52t-58 66-47 56q-56-44-116-89t-123-85H270z"/><glyph unicode="õ" glyph-name="otilde" horiz-adv-x="1243" d="M520-20q-139 0-236 51T135 179 84 416q0 116 26 224t78 202 129 163 178 109 228 39q139 0 236-51t149-148 51-237q0-116-26-224t-78-202-129-163T748 19 520-20zm43 290q34 0 64 26t56 71 43 104 28 125 10 133q0 44-10 73t-30 45-46 15q-34 0-64-26t-55-71-43-103-27-125-10-134q0-66 22-99t62-34zm-223 967q23 124 67 199t106 109 141 34q44 0 81-15t71-34 67-34 67-15q35 0 65 24t50 76h190q-25-126-70-201t-108-108-143-33q-48 0-88 15t-76 34-68 34-67 15q-31 0-60-27t-36-73H340z"/><glyph unicode="ö" glyph-name="odieresis" horiz-adv-x="1243" d="M520-20q-139 0-236 51T135 179 84 416q0 116 26 224t78 202 129 163 178 109 228 39q139 0 236-51t149-148 51-237q0-116-26-224t-78-202-129-163T748 19 520-20zm43 290q34 0 64 26t56 71 43 104 28 125 10 133q0 44-10 73t-30 45-46 15q-34 0-64-26t-55-71-43-103-27-125-10-134q0-66 22-99t62-34zm446 987q-73 0-121 26t-49 101q0 99 53 143t148 44q62 0 115-23t53-102q0-85-43-137t-156-52zm-487 0q-73 0-121 26t-49 101q0 99 53 143t148 44q41 0 80-9t64-37 26-79q0-85-44-137t-157-52z"/><glyph unicode="÷" glyph-name="divide" horiz-adv-x="1200" d="M92 588v268h1014V588H92zm506-426q-63 0-109 40t-47 130q0 95 46 132t110 38q62 0 110-37t48-133q0-89-48-129t-110-41zm0 780q-63 0-109 40t-47 130q0 95 46 132t110 38q62 0 110-37t48-133q0-89-48-129t-110-41z"/><glyph unicode="ø" glyph-name="oslash" horiz-adv-x="1286" d="M193-111 66-2l112 131q-44 56-69 126T84 416q0 116 27 224t80 202 133 163 184 109 235 39q76 0 137-15t113-42l105 121 127-109-105-123q38-52 60-118t22-150q0-116-27-224t-80-202-132-163T781 19 549-20q-70 0-129 13T311 29L193-111zm397 371q35 0 68 12t62 39 52 67 39 97 23 131q0 11 1 22t1 21L518 274q16-7 33-10t39-4zM449 451l335 397q-16 14-36 21t-46 8q-36 0-70-17t-65-49-55-80-40-108-21-134q-1-9-1-18t-1-20z"/><glyph unicode="ù" glyph-name="ugrave" horiz-adv-x="1274" d="M395-20q-105 0-171 44t-97 117-31 160q0 57 7 116t18 113l127 603h387L506 516q-6-26-12-66t-7-75q0-43 22-64t54-22q34 0 68 31t65 96 52 166l116 551h387L1012 0H702l13 158h-8q-37-63-82-102T524-2 395-20zm320 1261q-45 42-94 94t-92 108-68 105v21h395q9-44 21-94t31-104 42-105v-25H715z"/><glyph unicode="ú" glyph-name="uacute" horiz-adv-x="1274" d="M395-20q-105 0-171 44t-97 117-31 160q0 57 7 116t18 113l127 603h387L506 516q-6-26-12-66t-7-75q0-43 22-64t54-22q34 0 68 31t65 96 52 166l116 551h387L1012 0H702l13 158h-8q-37-63-82-102T524-2 395-20zm168 1261v23q48 39 98 91t99 108 86 106h438v-15q-22-27-74-69t-118-89-131-88-113-67H563z"/><glyph unicode="û" glyph-name="ucircumflex" horiz-adv-x="1274" d="M395-20q-105 0-171 44t-97 117-31 160q0 57 7 116t18 113l127 603h387L506 516q-6-26-12-66t-7-75q0-43 22-64t54-22q34 0 68 31t65 96 52 166l116 551h387L1012 0H702l13 158h-8q-37-63-82-102T524-2 395-20zM280 1241v23q48 43 104 97t111 109 95 99h446q21-45 51-101t65-110 64-94v-23H950q-22 20-51 52t-58 66-47 56q-56-44-116-89t-123-85H280z"/><glyph unicode="ü" glyph-name="udieresis" horiz-adv-x="1274" d="M395-20q-105 0-171 44t-97 117-31 160q0 57 7 116t18 113l127 603h387L506 516q-6-26-12-66t-7-75q0-43 22-64t54-22q34 0 68 31t65 96 52 166l116 551h387L1012 0H702l13 158h-8q-37-63-82-102T524-2 395-20zm625 1277q-73 0-121 26t-49 101q0 99 53 143t148 44q62 0 115-23t53-102q0-85-43-137t-156-52zm-487 0q-73 0-121 26t-49 101q0 99 53 143t148 44q41 0 80-9t64-37 26-79q0-85-44-137t-157-52z"/><glyph unicode="ý" glyph-name="yacute" horiz-adv-x="1114" d="M25-492q-58 0-95 5t-59 12v307q19-4 47-8t62-4q89 0 143 37t98 114l23 41L82 1133h389l39-521q3-34 3-66t1-63-2-61h8q10 31 22 66t25 70 23 58l223 517h416L559-143q-61-118-136-195T251-454 25-492zm437 1733v23q48 39 98 91t99 108 86 106h438v-15q-22-27-74-69t-118-89-131-88-113-67H462z"/><glyph unicode="þ" glyph-name="thorn" horiz-adv-x="1243" d="m-82-492 434 2048h387l-49-231q-18-94-44-176t-46-125h8q29 39 61 68t74 45 93 16q147 0 235-109t88-309q0-112-23-221t-66-206-105-170T824 22 651-20q-51 0-93 18t-77 50-61 77h-8q-7-80-17-159t-39-212l-51-246H-82zm655 783q32 0 61 23t52 64 41 93 27 110 10 117q0 70-21 107t-65 37q-44 0-81-40t-63-105-38-138q-7-31-9-62t-2-63q0-64 23-103t65-40z"/><glyph unicode="ÿ" glyph-name="ydieresis" horiz-adv-x="1114" d="M25-492q-58 0-95 5t-59 12v307q19-4 47-8t62-4q89 0 143 37t98 114l23 41L82 1133h389l39-521q3-34 3-66t1-63-2-61h8q10 31 22 66t25 70 23 58l223 517h416L559-143q-61-118-136-195T251-454 25-492zm1150 1749q-73 0-121 26t-49 101q0 99 53 143t148 44q62 0 115-23t53-102q0-85-43-137t-156-52zm-487 0q-73 0-121 26t-49 101q0 99 53 143t148 44q41 0 80-9t64-37 26-79q0-85-44-137t-157-52z"/><glyph unicode="–" glyph-name="endash" horiz-adv-x="983" d="m33 416 57 274h871l-60-274H33z"/><glyph unicode="—" glyph-name="emdash" horiz-adv-x="1966" d="m33 416 57 274h1854l-60-274H33z"/><glyph unicode="‘" glyph-name="quoteleft" horiz-adv-x="500" d="m119 961-10 22q31 70 72 152t90 166 96 161h288q-26-61-51-126t-50-132-46-128-41-115H119z"/><glyph unicode="’" glyph-name="quoteright" horiz-adv-x="500" d="M94 961q34 81 68 170t65 175 56 156h348l8-22q-30-70-72-152t-89-166-95-161H94z"/><glyph unicode="‚" glyph-name="quotesinglbase" horiz-adv-x="621" d="M-104-264q35 81 68 170T28 81t56 157h348l8-23q-29-69-70-151t-89-167-97-161h-288z"/><glyph unicode="“" glyph-name="quotedblleft" horiz-adv-x="997" d="m614 961-8 22q31 70 72 152t89 166 95 161h289q-35-81-68-170t-63-174-57-157H614zm-495 0-10 22q31 70 72 152t90 166 96 161h288q-26-61-51-126t-50-132-46-128-41-115H119z"/><glyph unicode="”" glyph-name="quotedblright" horiz-adv-x="997" d="M592 961q34 81 67 170t64 175 57 156h348l7-22q-31-70-72-152t-88-166-94-161H592zm-498 0q34 81 67 170t64 175 58 156h348l8-22q-30-70-72-152t-89-166-95-161H94z"/><glyph unicode="„" glyph-name="quotedblbase" horiz-adv-x="1122" d="M397-264q34 81 67 170t64 175 58 157h348l8-23q-30-69-72-151t-89-167-97-161H397zm-501 0q35 81 68 170T28 81t56 157h348l8-23q-29-69-70-151t-89-167-97-161h-288z"/><glyph unicode="•" glyph-name="bullet" horiz-adv-x="803" d="M379 389q-142 0-217 83T86 688q0 110 43 205t128 154 210 59q106 0 170-37t95-106 30-158q0-113-40-208T598 446t-219-57z"/><glyph unicode="‹" glyph-name="guilsinglleft" horiz-adv-x="719" d="M244 76 61 553v10l408 518 264-204-266-334 111-330L244 76z"/><glyph unicode="›" glyph-name="guilsinglright" horiz-adv-x="719" d="M250 43-14 248l266 334-111 329 332 138 184-478v-10L250 43z"/></font>
</defs>
</svg>
